<svg height="320" version="1.1" width="320" xmlns="http://www.w3.org/2000/svg" xmlns:xlink="http://www.w3.org/1999/xlink" style="overflow: hidden; position: relative; left: -0.5px; top: -0.796875px;" viewBox="0 0 320 320" preserveAspectRatio="xMidYMid meet" id="main_svg"><svg height="320" version="1.1" width="320" xmlns="http://www.w3.org/2000/svg" xmlns:xlink="http://www.w3.org/1999/xlink" style="overflow: hidden; position: relative;" viewBox="0 0 160 160" preserveAspectRatio="xMidYMid meet" id="imported_svg_layer_1"><path fill="#20242d" stroke="none" d="M120.038,0H39.962C17.892,0,0,17.888,0,39.962V120.038C0,142.108,17.888,160,39.962,160H120.038C142.108,160,160,142.112,160,120.038V39.962C160,17.892,142.112,0,120.038,0Z" stroke-width="0" transform="matrix(1,0,0,1,0,0)" style="-webkit-tap-highlight-color: rgba(0, 0, 0, 0);"></path><desc style="-webkit-tap-highlight-color: rgba(0, 0, 0, 0);">Created with Logotizer</desc><defs style="-webkit-tap-highlight-color: rgba(0, 0, 0, 0);"></defs></svg><svg height="320" version="1.1" width="320" xmlns="http://www.w3.org/2000/svg" xmlns:xlink="http://www.w3.org/1999/xlink" style="overflow: hidden; position: relative;" viewBox="0 0 160 160" preserveAspectRatio="xMidYMid meet" id="imported_svg_layer_2"><desc style="-webkit-tap-highlight-color: rgba(0, 0, 0, 0);">Created with Logotizer</desc><defs style="-webkit-tap-highlight-color: rgba(0, 0, 0, 0);"></defs><path fill="#ffffff" stroke="#d5d5d5" d="M141,98H111.949C111.971,97.67,112,97.34,112,97V63A15,15,0,0,0,97,48H63A15,15,0,0,0,48,63V97A15,15,0,0,0,63,112H97C97.338,112,97.668,111.97,98,111.95V141H59A40,40,0,0,1,19,101V59A40,40,0,0,1,59,19H101A40,40,0,0,1,141,59M141,141H112V112H141V141Z" stroke-width="2" transform="matrix(1,0,0,1,0,0)" style="-webkit-tap-highlight-color: rgba(0, 0, 0, 0); display: none; cursor: move;"></path></svg><desc style="-webkit-tap-highlight-color: rgba(0, 0, 0, 0);">Created with Logotizer</desc><defs style="-webkit-tap-highlight-color: rgba(0, 0, 0, 0);"><linearGradient id="gradient_dttux9fbeyuoa3i2fxqm5g" x1="0.19438030913771848" y1="1" x2="0" y2="0" style="-webkit-tap-highlight-color: rgba(0, 0, 0, 0);"><stop offset="0%" stop-color="#f6a617" stop-opacity="1" style="-webkit-tap-highlight-color: rgba(0, 0, 0, 0);"></stop><stop offset="100%" stop-color="#ffa300" stop-opacity="1" style="-webkit-tap-highlight-color: rgba(0, 0, 0, 0);"></stop></linearGradient></defs><path fill="#f6a617" stroke="#f6a617" d="M43.67,-7.26Q43.67,-3.74,40.15,-1.87Q36.63,0,32.23,0L5.83,0Q1.43,0,-1.98,-1.76Q-5.39,-3.52,-5.39,-7.26Q-5.39,-12.76,0.11,-12.76Q4.29,-12.76,4.29,-20.9L4.29,-122.76L-43.67,-9.9Q-48.29,1.98,-53.79,2.2Q-56.43,2.2,-58.52,0.55Q-60.61,-1.1,-61.38,-2.64Q-62.15,-4.18,-63.91,-8.14L-114.07,-122.98L-112.75,-22.22Q-112.75,-12.76,-108.13,-12.76Q-105.71,-12.76,-104.5,-11.88Q-103.29,-11,-103.07,-10.12Q-102.85,-9.24,-102.85,-7.26Q-102.85,0,-114.73,0L-129.69,0Q-140.47,0,-140.47,-7.26Q-140.47,-12.76,-133.87,-12.76Q-130.35,-12.76,-130.35,-22.22L-129.03,-134.2Q-129.03,-142.34,-133.21,-142.34Q-139.15,-142.34,-139.15,-147.84Q-139.15,-151.8,-135.52,-153.78Q-131.89,-155.76,-127.05,-155.76L-101.97,-155.76Q-100.87,-155.76,-99.77,-155.65Q-98.67,-155.54,-98.01,-155.32Q-97.35,-155.1,-96.58,-154.66Q-95.81,-154.22,-95.37,-154Q-94.93,-153.78,-94.38,-153.12Q-93.83,-152.46,-93.61,-152.13Q-93.39,-151.8,-92.95,-150.81Q-92.51,-149.82,-92.4,-149.6Q-92.29,-149.38,-91.74,-148.17Q-91.19,-146.96,-91.19,-146.74L-46.31,-38.5L-0.11,-148.5Q3.19,-155.76,12.21,-155.76L31.35,-155.76Q36.41,-155.76,39.93,-153.78Q43.45,-151.8,43.45,-148.06Q43.45,-142.56,37.29,-142.56Q33.77,-142.56,33.77,-134.2L33.77,-20.9Q33.77,-12.76,37.73,-12.76Q41.25,-12.76,42.46,-11.33Q43.67,-9.9,43.67,-7.26ZM146.19,-31.46Q146.19,-22.44,142.12,-15.62Q138.05,-8.8,131.34,-5.06Q124.63,-1.32,117.26,0.55Q109.89,2.42,102.41,2.42Q75.57,2.42,64.57,-6.16Q62.59,-7.7,61.6,-9.46Q60.61,-11.22,60.17,-14.52Q59.73,-17.82,59.73,-18.7Q59.73,-19.58,59.73,-23.76Q59.73,-35.2,67.43,-35.2Q70.29,-35.2,72.49,-32.56Q74.69,-29.92,77.33,-25.08Q79.97,-20.24,82.39,-17.6Q87.45,-12.32,92.18,-10.56Q96.91,-8.8,104.61,-8.8Q113.63,-8.8,117.59,-13.86Q121.55,-18.92,121.55,-24.42Q121.55,-33.22,108.35,-38.94Q105.93,-40.04,97.13,-43.12Q77.11,-50.38,68.97,-57.64Q60.83,-64.9,60.83,-78.98Q60.83,-93.72,71.94,-101.64Q83.05,-109.56,99.99,-109.56Q140.03,-109.56,140.03,-93.72Q140.03,-74.14,131.89,-74.14Q128.37,-74.14,123.75,-81.84Q119.13,-89.54,116.93,-91.52Q109.23,-98.78,99.77,-98.78Q93.39,-98.78,88.77,-95.48Q84.15,-92.18,84.15,-85.36Q84.15,-82.94,84.92,-80.74Q85.69,-78.54,87.67,-76.78Q89.65,-75.02,91.19,-73.81Q92.73,-72.6,95.92,-71.39Q99.11,-70.18,100.76,-69.52Q102.41,-68.86,106.15,-67.65Q109.89,-66.44,110.77,-66.22Q129.47,-60.06,137.83,-51.81Q146.19,-43.56,146.19,-31.46Z" stroke-width="2" transform="matrix(0.76,0,0,0.76,160,221.75)" style="-webkit-tap-highlight-color: rgba(0, 0, 0, 0);"></path></svg>